<svg width="38" height="38" viewBox="0 0 38 38" fill="none" xmlns="http://www.w3.org/2000/svg">
<g id="icon">
<path id="vector" d="M29.9739 8.93222C27.9555 8.00613 25.7912 7.32382 23.5282 6.93304C23.487 6.92549 23.4458 6.94434 23.4246 6.98204C23.1463 7.47711 22.8379 8.12298 22.622 8.63063C20.1881 8.26624 17.7666 8.26624 15.3825 8.63063C15.1666 8.1117 14.847 7.47711 14.5674 6.98204C14.5462 6.9456 14.505 6.92675 14.4638 6.93304C12.2021 7.32257 10.0378 8.00488 8.0182 8.93222C8.00071 8.93976 7.98573 8.95233 7.97578 8.96866C3.87047 15.1019 2.74585 21.0844 3.29755 26.9927C3.30005 27.0216 3.31627 27.0493 3.33874 27.0669C6.04731 29.056 8.67102 30.2636 11.246 31.064C11.2872 31.0765 11.3309 31.0615 11.3571 31.0275C11.9662 30.1957 12.5092 29.3186 12.9747 28.3963C13.0022 28.3423 12.976 28.2782 12.9198 28.2568C12.0586 27.9301 11.2385 27.5318 10.4497 27.0795C10.3873 27.043 10.3823 26.9538 10.4397 26.911C10.6057 26.7866 10.7717 26.6572 10.9302 26.5265C10.9589 26.5027 10.9989 26.4976 11.0326 26.5127C16.215 28.8788 21.8257 28.8788 26.947 26.5127C26.9807 26.4964 27.0207 26.5014 27.0506 26.5253C27.2091 26.656 27.3751 26.7866 27.5424 26.911C27.5998 26.9538 27.596 27.043 27.5337 27.0795C26.7448 27.5406 25.9247 27.9301 25.0622 28.2556C25.0061 28.2769 24.9811 28.3423 25.0086 28.3963C25.4841 29.3173 26.0271 30.1944 26.625 31.0263C26.6499 31.0615 26.6948 31.0765 26.7361 31.064C29.3235 30.2636 31.9472 29.056 34.6558 27.0669C34.6795 27.0493 34.6945 27.0229 34.697 26.994C35.3573 20.1633 33.5911 14.2299 30.015 8.96991C30.0063 8.95233 29.9913 8.93976 29.9739 8.93222ZM13.7487 23.3952C12.1884 23.3952 10.9028 21.9627 10.9028 20.2035C10.9028 18.4444 12.1635 17.0119 13.7487 17.0119C15.3463 17.0119 16.6195 18.4569 16.5945 20.2035C16.5945 21.9627 15.3338 23.3952 13.7487 23.3952ZM24.2709 23.3952C22.7106 23.3952 21.425 21.9627 21.425 20.2035C21.425 18.4444 22.6857 17.0119 24.2709 17.0119C25.8686 17.0119 27.1417 18.4569 27.1168 20.2035C27.1168 21.9627 25.8686 23.3952 24.2709 23.3952Z" fill="white"/>
</g>
</svg>
