<svg width="24" height="23" viewBox="0 0 24 23" fill="none" xmlns="http://www.w3.org/2000/svg">
<g id="Social Icons">
<path id="Vector" d="M0.5 23L2.1167 17.0938C1.11908 15.365 0.594875 13.4052 0.595833 11.3955C0.598708 5.11271 5.71141 0 11.9933 0C15.0417 0.000958333 17.9033 1.18833 20.0557 3.34267C22.2072 5.497 23.3917 8.3605 23.3907 11.4061C23.3878 17.6899 18.2751 22.8026 11.9933 22.8026C10.0862 22.8016 8.2069 22.3234 6.54228 21.4149L0.5 23ZM6.82211 19.3516C8.42827 20.3052 9.9616 20.8763 11.9894 20.8773C17.2104 20.8773 21.4635 16.628 21.4664 11.4042C21.4683 6.16975 17.2353 1.92625 11.9971 1.92433C6.77228 1.92433 2.52208 6.17358 2.52016 11.3965C2.5192 13.5288 3.14404 15.1254 4.19341 16.7957L3.23604 20.2917L6.82211 19.3516ZM17.7346 14.1153C17.6637 13.9965 17.474 13.9255 17.1884 13.7827C16.9038 13.64 15.5036 12.9509 15.242 12.856C14.9813 12.7612 14.7916 12.7132 14.6009 12.9988C14.4111 13.2835 13.8649 13.9255 13.6991 14.1153C13.5333 14.305 13.3666 14.329 13.0819 14.1862C12.7973 14.0434 11.8792 13.7435 10.7915 12.7727C9.94531 12.0175 9.37319 11.085 9.2074 10.7995C9.04161 10.5148 9.19015 10.3605 9.33198 10.2187C9.4604 10.0912 9.6166 9.88617 9.7594 9.71942C9.9041 9.55458 9.95106 9.43575 10.0469 9.24504C10.1418 9.05529 10.0948 8.88854 10.0229 8.74575C9.95106 8.60392 9.38181 7.20187 9.14511 6.63167C8.91319 6.07679 8.6784 6.15154 8.50398 6.14292L7.95773 6.13333C7.76798 6.13333 7.4594 6.20425 7.19873 6.48983C6.93807 6.77542 6.20207 7.4635 6.20207 8.86554C6.20207 10.2676 7.22269 11.6217 7.36453 11.8115C7.50732 12.0012 9.37223 14.8781 12.229 16.1115C12.9085 16.4047 13.4394 16.5801 13.8524 16.7114C14.5348 16.928 15.1558 16.8973 15.6464 16.8245C16.1936 16.743 17.3312 16.1355 17.5688 15.4704C17.8065 14.8043 17.8065 14.2341 17.7346 14.1153Z" fill="#25D366"/>
</g>
</svg>
