<svg width="38" height="38" viewBox="0 0 38 38" fill="none" xmlns="http://www.w3.org/2000/svg">
<g id="icon">
<path id="vector" d="M31.5914 12.5402C31.6107 12.8194 31.6107 13.0986 31.6107 13.3803C31.6107 21.965 25.0754 31.8657 13.1253 31.8657V31.8606C9.59519 31.8657 6.13842 30.8545 3.16666 28.948C3.67996 29.0097 4.19584 29.0406 4.713 29.0419C7.63846 29.0445 10.4803 28.0629 12.7818 26.2554C10.0017 26.2026 7.56384 24.39 6.71219 21.7437C7.68606 21.9315 8.68951 21.8929 9.64536 21.6318C6.61442 21.0194 4.43384 18.3564 4.43384 15.2637C4.43384 15.2354 4.43384 15.2084 4.43384 15.1814C5.33695 15.6844 6.34812 15.9636 7.38245 15.9944C4.52775 14.0866 3.6478 10.2889 5.37168 7.31971C8.67021 11.3785 13.537 13.846 18.7613 14.1072C18.2378 11.8507 18.953 9.48614 20.6409 7.89991C23.2576 5.44016 27.373 5.56624 29.8328 8.18165C31.2878 7.89476 32.6823 7.36087 33.9585 6.60442C33.4735 8.10832 32.4585 9.38579 31.1025 10.1976C32.3903 10.0458 33.6485 9.70098 34.8333 9.17481C33.9611 10.4819 32.8624 11.6204 31.5914 12.5402Z" fill="white"/>
</g>
</svg>
